<svg xmlns="http://www.w3.org/2000/svg" viewBox="0 0 46.22 50.04"><defs><style>.cls-1{fill:#f3b51b;}.cls-2{fill:#4f515b;}</style></defs><g id="Layer_2" data-name="Layer 2"><g id="Layer_1-2" data-name="Layer 1"><path class="cls-1" d="M25.92,35.82a15.2,15.2,0,1,1,15.2-15.19A15.2,15.2,0,0,1,25.92,35.82Zm0-25.84A10.65,10.65,0,1,0,36.57,20.63,10.67,10.67,0,0,0,25.92,10Z"/><path class="cls-2" d="M9.38,50a9.38,9.38,0,1,1,9.38-9.38A9.39,9.39,0,0,1,9.38,50Zm0-14.22a4.84,4.84,0,1,0,4.83,4.84A4.84,4.84,0,0,0,9.38,35.82Z"/><circle class="cls-2" cx="41.33" cy="4.89" r="4.89"/></g></g></svg>