<svg id="eL0lBkGbmWe1" xmlns="http://www.w3.org/2000/svg" xmlns:xlink="http://www.w3.org/1999/xlink" viewBox="0 0 46.22 50.04" shape-rendering="geometricPrecision" text-rendering="geometricPrecision"><style><![CDATA[#eL0lBkGbmWe4_ts {animation: eL0lBkGbmWe4_ts__ts 3000ms linear infinite normal forwards}@keyframes eL0lBkGbmWe4_ts__ts { 0% {transform: translate(25.920004px,20.620001px) scale(1,1)} 30% {transform: translate(25.920004px,20.620001px) scale(1.335526,1.335526)} 53.333333% {transform: translate(25.920004px,20.620001px) scale(1.013816,1.013818)} 73.333333% {transform: translate(25.920004px,20.620001px) scale(1.335527,1.335531)} 100% {transform: translate(25.920004px,20.620001px) scale(1.013816,1.013816)}} #eL0lBkGbmWe5_ts {animation: eL0lBkGbmWe5_ts__ts 3000ms linear infinite normal forwards}@keyframes eL0lBkGbmWe5_ts__ts { 0% {transform: translate(9.277606px,40.619999px) scale(0.640196,0.640198)} 23.333333% {transform: translate(9.277606px,40.619999px) scale(0.443704,0.443707)} 50% {transform: translate(9.277606px,40.619999px) scale(0.803938,0.803944)} 73.333333% {transform: translate(9.277606px,40.619999px) scale(0.443705,0.443709)} 100% {transform: translate(9.277606px,40.619999px) scale(0.929466,0.929476)}} #eL0lBkGbmWe6_ts {animation: eL0lBkGbmWe6_ts__ts 3000ms linear infinite normal forwards}@keyframes eL0lBkGbmWe6_ts__ts { 0% {transform: translate(41.330002px,4.89px) scale(1,1)} 6.666667% {transform: translate(41.330002px,4.89px) scale(-0.188804,-0.188804)} 43.333333% {transform: translate(41.330002px,4.89px) scale(-0.822534,-0.822534)} 63.333333% {transform: translate(41.330002px,4.89px) scale(-0.500002,-0.500002)} 83.333333% {transform: translate(41.330002px,4.89px) scale(-0.955373,-0.955374)} 100% {transform: translate(41.330002px,4.89px) scale(-0.999999,-0.999999)}}]]></style><g><g><g id="eL0lBkGbmWe4_ts" transform="translate(25.920004,20.620001) scale(1,1)"><path d="M25.92,35.82c-6.148736-.000001-11.691839-3.704445-14.043923-9.385524s-1.049803-12.219653,3.29944-16.566035s10.888674-5.64436,16.568204-3.288538s9.380324,7.901362,9.376279,14.050097c-.00552,8.390823-6.809175,15.190002-15.2,15.19Zm0-25.84c-5.881833,0-10.65,4.768167-10.65,10.65s4.768167,10.65,10.65,10.65s10.65-4.768167,10.65-10.65C36.548006,14.760544,31.789487,10.010961,25.92,10Z" transform="translate(-25.920004,-20.620001)" fill="#f3b51b"/></g><g id="eL0lBkGbmWe5_ts" transform="translate(9.277606,40.619999) scale(0.640196,0.640198)"><path d="M9.38,50C4.199569,50,0,45.800431,0,40.62s4.199569-9.38,9.38-9.38s9.38,4.199569,9.38,9.38c-.005512,5.178146-4.201854,9.374488-9.38,9.38Zm0-14.22c-1.958502-.004047-3.726409,1.172613-4.4787,2.980873s-.340674,3.891668,1.042766,5.277972s3.465993,1.802231,5.275805,1.053681s2.990125-2.51402,2.990129-4.472526c-.021925-2.65353-2.176385-4.794608-4.83-4.8Z" transform="translate(-9.38,-40.619999)" fill="#4f515b"/></g><g id="eL0lBkGbmWe6_ts" transform="translate(41.330002,4.89) scale(1,1)"><circle r="4.89" transform="translate(-0.000002,0)" fill="#4f515b"/></g></g></g></svg>